<svg xmlns="http://www.w3.org/2000/svg" width="48" height="48" viewBox="0 0 48 48" fill="none">
  <path d="M30.0016 6.75C26.8878 6.75151 23.8322 7.59506 21.1586 9.19131C18.485 10.7876 16.2928 13.0771 14.8141 15.8175C13.0938 15.6398 11.3553 15.8139 9.70436 16.3293C8.05345 16.8447 6.52465 17.6906 5.21097 18.8155C3.8973 19.9404 2.82622 21.3208 2.06291 22.8727C1.29959 24.4247 0.859988 26.1157 0.770852 27.8429C0.681716 29.5701 0.944908 31.2974 1.54441 32.9196C2.14392 34.5419 3.06721 36.0252 4.25811 37.2794C5.449 38.5335 6.8826 39.5323 8.47169 40.2149C10.0608 40.8975 11.7721 41.2497 13.5016 41.25H30.0016C34.5766 41.25 38.9642 39.4326 42.1992 36.1976C45.4342 32.9626 47.2516 28.575 47.2516 24C47.2516 19.425 45.4342 15.0374 42.1992 11.8024C38.9642 8.56741 34.5766 6.75 30.0016 6.75ZM30.0016 36.75H13.5016C11.3136 36.7953 9.1972 35.9695 7.61803 34.4543C6.03885 32.9391 5.12626 30.8587 5.08101 28.6706C5.03575 26.4826 5.86155 24.3662 7.37673 22.787C8.8919 21.2078 10.9723 20.2953 13.1604 20.25C12.8872 21.4813 12.7502 22.7388 12.7516 24C12.7516 24.5967 12.9887 25.169 13.4106 25.591C13.8326 26.0129 14.4049 26.25 15.0016 26.25C15.5984 26.25 16.1707 26.0129 16.5926 25.591C17.0146 25.169 17.2516 24.5967 17.2516 24C17.2516 21.4783 17.9994 19.0132 19.4004 16.9165C20.8014 14.8198 22.7927 13.1856 25.1224 12.2205C27.4522 11.2555 30.0158 11.003 32.489 11.495C34.9623 11.9869 37.2341 13.2013 39.0172 14.9844C40.8004 16.7675 42.0147 19.0393 42.5066 21.5126C42.9986 23.9859 42.7461 26.5495 41.7811 28.8792C40.8161 31.209 39.1819 33.2002 37.0852 34.6012C34.9884 36.0022 32.5233 36.75 30.0016 36.75Z" fill="#514F4F"/>
</svg>