<svg xmlns="http://www.w3.org/2000/svg" width="48" height="48" viewBox="0 0 48 48" fill="none">
  <path d="M37.5014 28.5C36.4275 28.4993 35.369 28.7565 34.4152 29.25L30.4045 26.13C30.6226 25.4824 30.7396 24.8051 30.7514 24.1219L32.692 23.4769C33.7896 24.5914 35.2403 25.2901 36.796 25.4536C38.3517 25.6171 39.9159 25.2352 41.2212 24.3731C42.5265 23.5111 43.4919 22.2225 43.9523 20.7275C44.4128 19.2325 44.3397 17.6241 43.7457 16.177C43.1516 14.7299 42.0733 13.5341 40.6952 12.794C39.3171 12.0538 37.7248 11.8153 36.1903 12.1191C34.6558 12.423 33.2745 13.2503 32.2825 14.4598C31.2904 15.6693 30.7492 17.1857 30.7514 18.75C30.7514 18.9581 30.7627 19.1644 30.7814 19.3687L29.3227 19.8544C28.6922 19.0442 27.8851 18.3885 26.963 17.9372C26.0409 17.4859 25.028 17.2509 24.0014 17.25C23.8139 17.25 23.6489 17.25 23.4745 17.2725L22.6402 15.3975C23.779 14.3174 24.5058 12.8741 24.6955 11.3161C24.8853 9.75799 24.5262 8.1825 23.6799 6.8606C22.8336 5.5387 21.5531 4.55305 20.0587 4.07319C18.5643 3.59333 16.9493 3.64927 15.4917 4.23139C14.034 4.8135 12.8248 5.8854 12.072 7.26269C11.3193 8.63997 11.07 10.2365 11.3671 11.7778C11.6642 13.319 12.4891 14.7084 13.7 15.7072C14.9108 16.7059 16.4318 17.2515 18.0014 17.25C18.1889 17.25 18.3539 17.25 18.5283 17.2275L19.3627 19.1025C18.3742 20.0356 17.6912 21.2461 17.4038 22.5748C17.1163 23.9034 17.2377 25.2879 17.752 26.5462L13.762 30.0919C12.368 29.3223 10.7467 29.0704 9.18485 29.3807C7.62299 29.6909 6.22111 30.5434 5.22699 31.7873C4.23288 33.0313 3.71055 34.5866 3.75233 36.1784C3.7941 37.7702 4.3973 39.296 5.4553 40.4861C6.5133 41.6762 7.95796 42.4539 9.53395 42.6818C11.1099 42.9097 12.7157 42.5731 14.0675 41.7315C15.4193 40.8899 16.4301 39.5975 16.9211 38.0827C17.4121 36.568 17.3518 34.9284 16.7508 33.4537L20.7408 29.9081C21.8043 30.4966 23.0073 30.7863 24.2221 30.7463C25.4369 30.7064 26.6182 30.3383 27.6408 29.6812L31.3139 32.5425C30.7308 33.8741 30.5932 35.3584 30.9215 36.7746C31.2499 38.1907 32.0266 39.463 33.1362 40.4022C34.2458 41.3414 35.629 41.8972 37.0799 41.9871C38.5309 42.0769 39.972 41.696 41.189 40.9009C42.406 40.1058 43.3338 38.939 43.8344 37.5742C44.3349 36.2094 44.3815 34.7194 43.9671 33.326C43.5528 31.9326 42.6996 30.7102 41.5347 29.8407C40.3697 28.9711 38.9551 28.5009 37.5014 28.5ZM37.5014 16.5C37.9464 16.5 38.3814 16.632 38.7514 16.8792C39.1215 17.1264 39.4098 17.4778 39.5801 17.889C39.7504 18.3001 39.795 18.7525 39.7082 19.189C39.6214 19.6254 39.4071 20.0263 39.0924 20.341C38.7777 20.6557 38.3768 20.8699 37.9404 20.9568C37.5039 21.0436 37.0515 20.999 36.6404 20.8287C36.2292 20.6584 35.8778 20.37 35.6306 20C35.3834 19.63 35.2514 19.195 35.2514 18.75C35.2514 18.1533 35.4885 17.581 35.9104 17.159C36.3324 16.7371 36.9047 16.5 37.5014 16.5ZM15.7514 10.5C15.7514 10.055 15.8834 9.61998 16.1306 9.24996C16.3778 8.87995 16.7292 8.59157 17.1404 8.42127C17.5515 8.25097 18.0039 8.20641 18.4404 8.29323C18.8768 8.38005 19.2777 8.59434 19.5924 8.90901C19.9071 9.22368 20.1214 9.62459 20.2082 10.061C20.295 10.4975 20.2504 10.9499 20.0801 11.361C19.9098 11.7722 19.6215 12.1236 19.2514 12.3708C18.8814 12.618 18.4464 12.75 18.0014 12.75C17.4047 12.75 16.8324 12.5129 16.4104 12.091C15.9885 11.669 15.7514 11.0967 15.7514 10.5ZM10.5014 38.25C10.0564 38.25 9.62139 38.118 9.25138 37.8708C8.88137 37.6236 8.59298 37.2722 8.42269 36.861C8.25239 36.4499 8.20783 35.9975 8.29465 35.561C8.38146 35.1246 8.59576 34.7237 8.91043 34.409C9.22509 34.0943 9.62601 33.88 10.0625 33.7932C10.4989 33.7064 10.9513 33.751 11.3625 33.9213C11.7736 34.0916 12.125 34.38 12.3722 34.75C12.6195 35.12 12.7514 35.555 12.7514 36C12.7514 36.5967 12.5144 37.169 12.0924 37.591C11.6704 38.0129 11.0982 38.25 10.5014 38.25ZM21.7514 24C21.7514 23.555 21.8834 23.12 22.1306 22.75C22.3778 22.38 22.7292 22.0916 23.1404 21.9213C23.5515 21.751 24.0039 21.7064 24.4404 21.7932C24.8768 21.88 25.2777 22.0943 25.5924 22.409C25.9071 22.7237 26.1214 23.1246 26.2082 23.561C26.295 23.9975 26.2504 24.4499 26.0801 24.861C25.9098 25.2722 25.6215 25.6236 25.2514 25.8708C24.8814 26.118 24.4464 26.25 24.0014 26.25C23.4047 26.25 22.8324 26.0129 22.4104 25.591C21.9885 25.169 21.7514 24.5967 21.7514 24ZM37.5014 37.5C37.0564 37.5 36.6214 37.368 36.2514 37.1208C35.8814 36.8736 35.593 36.5222 35.4227 36.111C35.2524 35.6999 35.2078 35.2475 35.2946 34.811C35.3815 34.3746 35.5958 33.9737 35.9104 33.659C36.2251 33.3443 36.626 33.13 37.0625 33.0432C37.4989 32.9564 37.9513 33.001 38.3625 33.1713C38.7736 33.3416 39.125 33.63 39.3722 34C39.6195 34.37 39.7514 34.805 39.7514 35.25C39.7514 35.8467 39.5144 36.419 39.0924 36.841C38.6704 37.2629 38.0982 37.5 37.5014 37.5Z" fill="#0258FF"/>
</svg>