<svg xmlns="http://www.w3.org/2000/svg" width="48" height="48" viewBox="0 0 48 48" fill="none">
  <path d="M43.9417 31.875C44.2393 32.3907 44.3203 33.0032 44.1671 33.5786C44.0138 34.1539 43.6388 34.645 43.1242 34.9444L25.1242 45.4444C24.78 45.6453 24.3885 45.7512 23.9898 45.7512C23.5912 45.7512 23.1997 45.6453 22.8555 45.4444L4.85547 34.9444C4.33979 34.6437 3.96464 34.1506 3.81256 33.5734C3.66048 32.9962 3.74392 32.3822 4.04453 31.8665C4.34514 31.3509 4.83828 30.9757 5.41548 30.8236C5.99269 30.6716 6.60666 30.755 7.12234 31.0556L23.9973 40.8956L40.8742 31.0556C41.3899 30.7588 42.0023 30.6784 42.5771 30.8319C43.152 30.9855 43.6427 31.3605 43.9417 31.875ZM40.8742 22.0556L23.9992 31.8956L7.13359 22.0556C6.61937 21.7795 6.01799 21.714 5.4564 21.873C4.89482 22.032 4.41699 22.403 4.12378 22.9076C3.83057 23.4123 3.74494 24.0111 3.88496 24.5777C4.02498 25.1443 4.37969 25.6344 4.87422 25.9444L22.8742 36.4444C23.2185 36.6453 23.61 36.7512 24.0086 36.7512C24.4072 36.7512 24.7987 36.6453 25.143 36.4444L43.143 25.9444C43.6586 25.6435 44.0337 25.1501 44.1856 24.5727C44.3375 23.9954 44.2538 23.3813 43.953 22.8656C43.6521 22.3499 43.1587 21.9749 42.5813 21.823C42.004 21.6711 41.3899 21.7548 40.8742 22.0556ZM3.74922 15C3.74995 14.6057 3.85426 14.2186 4.0517 13.8774C4.24915 13.5361 4.53279 13.2527 4.87422 13.0556L22.8742 2.55561C23.2189 2.35575 23.6102 2.25049 24.0086 2.25049C24.407 2.25049 24.7983 2.35575 25.143 2.55561L43.143 13.0556C43.4831 13.2536 43.7652 13.5374 43.9614 13.8786C44.1575 14.2198 44.2607 14.6064 44.2607 15C44.2607 15.3935 44.1575 15.7802 43.9614 16.1214C43.7652 16.4626 43.4831 16.7463 43.143 16.9444L25.143 27.4444C24.7987 27.6453 24.4072 27.7512 24.0086 27.7512C23.61 27.7512 23.2185 27.6453 22.8742 27.4444L4.87422 16.9444C4.53279 16.7472 4.24915 16.4639 4.0517 16.1226C3.85426 15.7814 3.74995 15.3942 3.74922 15ZM10.4655 15L23.9992 22.8956L37.533 15L23.9992 7.10436L10.4655 15Z" fill="#514F4F"/>
</svg>

