<svg xmlns="http://www.w3.org/2000/svg" width="48" height="48" viewBox="0 0 48 48" fill="none">
  <path d="M21.4857 35.25C20.9331 37.5741 19.5466 39.6145 17.5893 40.9839C15.6319 42.3533 13.24 42.9565 10.8673 42.6789C8.49464 42.4014 6.30643 41.2625 4.71796 39.4783C3.12948 37.6941 2.25129 35.3889 2.25004 33C2.24389 30.8886 2.92946 28.8332 4.20192 27.1482C4.37566 26.9025 4.59694 26.6941 4.85264 26.5354C5.10834 26.3767 5.39328 26.271 5.69059 26.2243C5.98789 26.1777 6.29153 26.1913 6.58352 26.2641C6.87552 26.3369 7.14994 26.4676 7.39053 26.6483C7.63113 26.8291 7.83303 27.0563 7.98427 27.3165C8.1355 27.5766 8.23301 27.8645 8.27102 28.163C8.30902 28.4616 8.28676 28.7647 8.20554 29.0545C8.12432 29.3442 7.9858 29.6148 7.79817 29.85C7.11408 30.7574 6.74595 31.8637 6.75004 33C6.75004 34.3924 7.30316 35.7278 8.28773 36.7124C9.2723 37.6969 10.6077 38.25 12 38.25C13.3924 38.25 14.7278 37.6969 15.7124 36.7124C16.6969 35.7278 17.25 34.3924 17.25 33C17.25 32.4033 17.4871 31.831 17.909 31.4091C18.331 30.9871 18.9033 30.75 19.5 30.75H36C36.5968 30.75 37.1691 30.9871 37.591 31.4091C38.013 31.831 38.25 32.4033 38.25 33C38.25 33.5968 38.013 34.1691 37.591 34.591C37.1691 35.013 36.5968 35.25 36 35.25H21.4857ZM10.8207 34.9163C11.0723 35.0712 11.352 35.175 11.6438 35.2218C11.9355 35.2686 12.2336 35.2574 12.5211 35.189C12.8086 35.1206 13.0797 34.9962 13.3191 34.823C13.5585 34.6498 13.7614 34.4311 13.9163 34.1794L21.9788 21.0657C22.1337 20.814 22.2375 20.5343 22.2843 20.2426C22.3311 19.9508 22.3199 19.6527 22.2515 19.3652C22.1831 19.0778 22.0587 18.8066 21.8855 18.5672C21.7123 18.3278 21.4936 18.1249 21.2419 17.97C20.5407 17.538 19.9509 16.9471 19.5203 16.245C19.0897 15.5429 18.8304 14.7494 18.7632 13.9285C18.696 13.1076 18.8229 12.2824 19.1336 11.5197C19.4443 10.7569 19.9301 10.0779 20.5518 9.53766C21.1734 8.99737 21.9135 8.61093 22.7121 8.40956C23.5107 8.20819 24.3455 8.19754 25.149 8.37847C25.9525 8.55941 26.7022 8.92685 27.3374 9.4511C27.9726 9.97535 28.4756 10.6417 28.8057 11.3963C28.9223 11.6693 29.0918 11.9166 29.3043 12.1238C29.5169 12.331 29.7684 12.4941 30.0444 12.6037C30.3203 12.7133 30.6152 12.7672 30.912 12.7623C31.2089 12.7574 31.5018 12.6938 31.7739 12.5751C32.0461 12.4565 32.2921 12.2852 32.4977 12.0711C32.7033 11.8569 32.8646 11.6042 32.9721 11.3275C33.0796 11.0508 33.1313 10.7555 33.1242 10.4587C33.1171 10.1619 33.0513 9.86943 32.9307 9.59817C32.3554 8.28569 31.4979 7.11616 30.4192 6.17281C29.3405 5.22946 28.0671 4.53549 26.6896 4.1403C25.3122 3.7451 23.8645 3.6584 22.4498 3.88636C21.035 4.11432 19.6879 4.65134 18.5043 5.4592C17.3207 6.26705 16.3297 7.32587 15.6019 8.56031C14.8741 9.79474 14.4273 11.1744 14.2934 12.6012C14.1595 14.0279 14.3418 15.4666 14.8272 16.8149C15.3126 18.1632 16.0893 19.388 17.1019 20.4019L10.0763 31.8207C9.92173 32.0728 9.81838 32.3528 9.77214 32.6449C9.7259 32.937 9.73768 33.2353 9.80682 33.5228C9.87595 33.8103 10.0011 34.0813 10.175 34.3204C10.349 34.5596 10.5684 34.762 10.8207 34.9163ZM36 23.25C34.9616 23.2496 33.9298 23.4155 32.9438 23.7413L25.9163 12.3188C25.6035 11.8106 25.1016 11.4474 24.5211 11.3092C23.9405 11.171 23.3289 11.2691 22.8207 11.5819C22.3124 11.8947 21.9493 12.3966 21.8111 12.9771C21.6729 13.5577 21.771 14.1693 22.0838 14.6775L30.1463 27.7894C30.3012 28.0413 30.5042 28.2602 30.7437 28.4336C30.9832 28.607 31.2546 28.7315 31.5423 28.7999C31.83 28.8684 32.1283 28.8794 32.4203 28.8325C32.7122 28.7855 32.9921 28.6815 33.2438 28.5263C33.9348 28.1019 34.7147 27.8434 35.5224 27.771C36.3301 27.6986 37.1436 27.8143 37.8991 28.109C38.6545 28.4037 39.3315 28.8694 39.8768 29.4696C40.4221 30.0698 40.821 30.7881 41.0422 31.5683C41.2633 32.3485 41.3007 33.1693 41.1514 33.9664C41.0022 34.7634 40.6703 35.5151 40.1819 36.1624C39.6934 36.8097 39.0616 37.3351 38.3361 37.6973C37.6105 38.0595 36.811 38.2487 36 38.25C35.4033 38.25 34.831 38.4871 34.409 38.9091C33.9871 39.331 33.75 39.9033 33.75 40.5C33.75 41.0968 33.9871 41.6691 34.409 42.091C34.831 42.513 35.4033 42.75 36 42.75C38.5859 42.75 41.0658 41.7228 42.8943 39.8943C44.7228 38.0659 45.75 35.5859 45.75 33C45.75 30.4142 44.7228 27.9342 42.8943 26.1058C41.0658 24.2773 38.5859 23.25 36 23.25Z" fill="#514F4F"/>
</svg>