<svg xmlns="http://www.w3.org/2000/svg" width="56" height="36" viewBox="0 0 56 36" fill="none">
  <g clip-path="url(#clip0_5039_4116)">
    <path d="M17.6634 28.8016L17.5636 28.899C15.9969 30.5076 14.1839 31.3575 12.3163 31.3575C8.41597 31.3575 5.58656 28.4088 5.58656 24.3417C5.58656 20.2808 8.41597 17.3274 12.3163 17.3274C14.1839 17.3274 15.9969 18.182 17.5636 19.7969L17.6634 19.8927L20.1717 16.8357L20.1046 16.754C18.0188 14.2703 15.5152 13.0623 12.4379 13.0623C9.35287 13.0623 6.52814 14.1101 4.49533 15.9968C2.28169 18.0422 1.11719 20.9264 1.11719 24.3417C1.11719 27.7569 2.28169 30.6474 4.49533 32.6928C6.52814 34.5905 9.35287 35.6305 12.4379 35.6305C15.5152 35.6305 18.0188 34.4209 20.1046 31.9356L20.1717 31.8602L17.6634 28.8016Z" fill="black"/>
    <path d="M22.7031 35.2136H27.1335V13.4151H22.7031V35.2136Z" fill="black"/>
    <path d="M44.4917 30.4748C43.3084 31.2006 42.2094 31.5666 41.2211 31.5666C39.7884 31.5666 39.1399 30.8031 39.1399 29.1065V17.5396H43.6561V13.4363H39.1399V6.65294L34.7984 8.99679V13.4363H31.0508V17.5396H34.7984V29.8433C34.7984 33.1941 36.7688 35.4877 39.7121 35.5474C41.709 35.5866 42.9125 34.9865 43.642 34.5467L43.6888 34.5168L44.7535 30.313L44.4917 30.4748Z" fill="black"/>
    <path d="M48.1602 35.2136H52.5968V13.4151H48.1602V35.2136Z" fill="black"/>
    <path d="M55.1816 9.59408C51.1331 3.81614 44.4111 0.369479 37.5722 0.369479C30.7348 0.369479 24.0113 3.81614 19.9706 9.59408L19.7617 9.89099H24.8593L24.9155 9.82972C28.384 6.21969 32.9142 4.31256 37.5722 4.31256C42.2302 4.31256 46.7573 6.21969 50.2336 9.82972L50.2897 9.89099H55.3842L55.1816 9.59408Z" fill="black"/>
  </g>
  <defs>
    <clipPath id="clip0_5039_4116">
      <rect width="55" height="36" fill="white" transform="translate(0.75)"/>
    </clipPath>
  </defs>
</svg>