<svg xmlns="http://www.w3.org/2000/svg" width="97" height="36" viewBox="0 0 97 36" fill="none">
  <g clip-path="url(#clip0_5039_4223)">
    <path d="M48.8758 0.550659C22.5447 0.550659 1.4375 8.29279 1.4375 17.9996C1.4375 27.6474 22.7186 35.4493 48.8758 35.4493C75.0336 35.4493 96.3148 27.6212 96.3148 17.9996C96.3148 8.37808 75.0336 0.550659 48.8758 0.550659Z" fill="black"/>
    <path d="M67.5603 21.696C67.573 21.7759 67.6799 21.8524 67.7835 21.8887C67.8216 21.9011 67.8403 21.9261 67.8004 22.011C67.5051 22.6321 67.2335 22.9902 66.8632 23.5298C66.5225 24.0284 66.1388 24.4174 65.6743 24.7916C64.9736 25.3604 64.0006 25.9795 63.1961 25.5633C62.8389 25.3814 62.6842 24.8908 62.6911 24.4937C62.7081 23.3769 63.2146 22.2304 64.1498 21.1036C65.2899 19.7268 66.5503 19.0126 67.3775 19.4029C68.2333 19.8034 67.9602 20.7753 67.5769 21.5382C67.5472 21.5974 67.5472 21.6473 67.5599 21.6956L67.5603 21.696ZM76.7437 12.994C76.8053 12.8875 76.7405 12.8097 76.6033 12.8097C75.8885 12.8097 74.9506 12.8112 74.2058 12.8112C74.0284 12.8112 73.9368 12.832 73.8532 12.9944C73.5782 13.511 70.228 18.4364 69.6044 19.3929C69.4992 19.5386 69.371 19.5182 69.3561 19.3512C69.2929 18.7832 68.7928 18.1301 68.0048 17.8177C67.4043 17.5787 66.8173 17.5354 66.2069 17.6149C65.1049 17.7602 64.1233 18.3304 63.2602 18.9735C61.9593 19.9435 60.837 21.2009 59.3882 22.1299C58.5973 22.6356 57.5142 23.0767 56.7895 22.4183C56.1336 21.8218 56.2077 20.4969 57.2112 19.4722C57.3169 19.3648 57.4437 19.4555 57.4238 19.5509C57.3292 20.0143 57.445 20.4751 57.804 20.7983C58.2418 21.1833 58.8683 21.2267 59.4046 20.9697C60.0374 20.6621 60.4093 20.0682 60.5177 19.3941C60.6853 18.3484 59.8648 17.4262 58.8381 17.3522C58.004 17.2947 57.2041 17.5794 56.4247 18.2104C56.0339 18.5284 55.812 18.7634 55.474 19.2348C55.3917 19.351 55.2652 19.3626 55.269 19.1911C55.3072 17.8523 54.7433 17.0991 53.615 17.0745C52.7391 17.0537 51.8035 17.5201 51.0742 18.0904C50.2747 18.7203 49.5757 19.5549 48.8263 20.3392C48.7329 20.4358 48.6519 20.4312 48.6256 20.2439C48.6043 19.3568 48.3756 18.4976 47.9572 17.8875C47.8091 17.6752 47.4973 17.5703 47.2354 17.7135C47.1145 17.7784 46.6939 17.9683 46.3875 18.2102C46.2356 18.333 46.1762 18.5107 46.2437 18.7385C46.6476 20.0638 46.5589 21.5705 46.0107 22.8431C45.5074 24.0086 44.5293 25.0598 43.3797 25.4156C42.6223 25.6512 41.835 25.5359 41.3478 24.8773C40.6788 23.9683 40.9489 22.3874 41.9464 21.0748C42.8265 19.9189 44.0998 19.1848 45.3697 18.712C45.5191 18.6554 45.5501 18.5613 45.5076 18.4368C45.4389 18.2321 45.3285 17.9531 45.284 17.8259C45.1673 17.5216 44.8413 17.4724 44.443 17.5149C43.5203 17.6202 42.6878 17.9303 41.8656 18.3622C39.7125 19.4932 38.633 21.6822 38.16 22.8532C37.9321 23.4158 37.7373 23.7667 37.4856 24.0779C37.1462 24.4964 36.7201 24.8774 35.941 25.5486C35.8705 25.6102 35.8179 25.7384 35.8773 25.8578C35.9567 26.0193 36.3619 26.5807 36.4762 26.6308C36.6031 26.692 36.7503 26.6058 36.8093 26.565C37.3545 26.2024 38.0067 25.6279 38.3259 25.2381C38.4379 25.1045 38.553 25.1607 38.6124 25.3634C38.9102 26.4059 39.6902 27.2571 40.7687 27.6132C42.743 28.2663 44.7906 27.321 46.3362 25.6753C47.3186 24.6293 47.673 23.9565 48.0496 23.4993C48.6877 22.7237 49.9464 20.9888 51.4455 19.8749C51.9953 19.4641 52.6459 19.1507 52.973 19.3589C53.2357 19.5258 53.3206 19.9137 52.8992 20.6653C51.3707 23.4033 49.1218 26.6202 48.7093 27.4002C48.6338 27.5355 48.7009 27.642 48.8443 27.642C49.6441 27.6382 50.437 27.6401 51.163 27.6401C51.284 27.636 51.3379 27.5802 51.3986 27.4965C52.5716 25.6953 53.6755 23.9811 54.8588 22.2086C54.925 22.1042 54.9861 22.1836 54.9886 22.2294C55.0141 22.6406 55.1159 23.2031 55.365 23.5724C55.8123 24.2552 56.4461 24.5487 57.1491 24.5531C57.7084 24.5615 57.9914 24.4761 58.5946 24.2551C59.0854 24.0765 59.4794 23.8422 59.7818 23.6301C59.9583 23.5094 59.9893 23.7113 59.985 23.7421C59.7135 25.172 60.0487 26.8663 61.4975 27.5687C63.2312 28.4073 65.1359 27.2287 66.2319 26.1647C66.3392 26.0623 66.4542 26.0731 66.4652 26.2941C66.4907 26.7004 66.6757 27.1824 67.0183 27.5198C67.9367 28.4239 69.79 28.0656 71.6499 26.6535C72.8441 25.7493 74.0935 24.4719 75.2221 23.1193C75.2646 23.0668 75.2951 22.9828 75.2136 22.8974C75.0418 22.7209 74.7932 22.5191 74.6227 22.3636C74.5451 22.2987 74.4309 22.3174 74.3656 22.3658C73.2087 23.4451 72.1673 24.676 70.6622 25.6938C70.1546 26.0414 69.3455 26.3218 68.9822 25.8392C68.8404 25.6519 68.8566 25.3929 68.9949 25.0529C69.4337 23.9794 76.3815 13.603 76.7422 12.991" fill="white"/>
    <path d="M44.058 14.2462C44.0877 14.4002 44.1488 14.4302 44.2201 14.4173C44.574 14.3478 44.9613 14.0622 45.1906 13.7312C45.3993 13.4311 45.4973 12.998 45.2898 12.8245C45.1048 12.6684 44.8036 12.7125 44.5803 12.906C44.1355 13.2915 44.0005 13.8384 44.0578 14.2465L44.058 14.2462ZM26.3499 27.6032C23.7593 27.6198 21.4771 26.0505 21.2152 23.3319C21.0697 21.8254 21.5038 20.4828 22.3728 19.3767C23.144 18.3911 24.4488 17.5723 25.5534 17.3722C25.9128 17.3077 26.3957 17.3472 26.5953 17.582C26.9085 17.9395 26.8185 18.3323 26.5053 18.489C25.6627 18.911 24.6487 19.6336 24.147 20.6201C23.7401 21.4254 23.6579 22.3958 24.2794 23.3203C25.3197 24.8611 28.2196 24.9034 30.9159 22.4463C31.5836 21.8449 32.1812 21.2671 32.7886 20.5827C33.9762 19.2507 34.3712 18.7653 35.9497 16.6174C35.9667 16.5924 35.9752 16.5599 35.9667 16.5441C35.954 16.515 35.9328 16.5108 35.8857 16.5067C34.8319 16.5358 33.9131 16.8434 33.0201 17.4981C32.7629 17.6821 32.3928 17.6562 32.2307 17.414C32.0504 17.1401 32.1799 16.7836 32.4765 16.5822C33.9131 15.6022 35.4824 15.4244 37.085 15.1591C37.0837 15.1591 37.1962 15.1632 37.2879 15.045C37.9457 14.2168 38.4425 13.4697 39.1438 12.6321C39.8504 11.7823 40.7632 11.0019 41.4606 10.4157C42.434 9.59462 43.0583 9.31832 43.6928 8.97966C43.86 8.89392 43.6716 8.79154 43.6207 8.79154C40.0784 8.13846 36.3965 7.29337 32.8786 8.57089C30.4422 9.46277 29.3745 11.358 29.8881 12.6244C30.2534 13.5227 31.4578 13.6688 32.5854 13.1275C33.522 12.6774 34.3886 11.9519 35.003 11.018C35.3467 10.4994 36.071 10.8736 35.6797 11.7742C34.6502 14.1476 32.6836 16.0303 30.288 16.1098C28.2493 16.1748 26.9339 14.7035 26.9382 12.8884C26.9466 9.30831 31.0095 6.95004 35.2794 6.59748C40.4216 6.18062 45.2921 7.52426 50.3978 8.13176C54.3096 8.59645 58.0601 8.60612 61.992 7.72007C62.4568 7.62101 62.783 7.91195 62.7527 8.37248C62.7145 9.03817 62.1887 9.67929 60.8937 10.3721C59.4209 11.1645 57.8801 11.4049 56.2709 11.4178C52.3798 11.4511 48.7553 9.96173 45.0045 9.16226C45.0087 9.32335 45.052 9.5152 44.9146 9.61689C42.8369 11.1201 40.959 12.6467 39.7012 14.7908C39.6588 14.8403 39.68 14.8874 39.7551 14.8824C40.8471 14.8253 41.8292 14.7979 42.8487 14.7179C43.0269 14.7013 43.0336 14.6597 43.0179 14.5323C42.9276 13.7933 43.1478 12.9505 43.8105 12.3708C44.4888 11.7743 45.338 11.7064 45.901 12.1361C46.5411 12.6253 46.4844 13.5052 46.1344 14.1651C45.778 14.8346 45.1893 15.1927 44.6244 15.3665C44.6244 15.3665 44.5055 15.3915 44.5234 15.4972C44.5446 15.6662 45.3153 16.0847 45.3812 16.1961C45.4448 16.3023 45.4109 16.4667 45.2951 16.5928C45.2136 16.6844 45.0859 16.7702 44.9225 16.7672C44.7906 16.7647 44.7104 16.7198 44.5415 16.6303C44.1961 16.4467 43.7644 16.1449 43.4765 15.7891C43.3785 15.6689 43.3284 15.6664 43.0835 15.6797C41.9803 15.7421 40.2601 15.9053 39.0946 16.0481C38.812 16.0814 38.7704 16.1342 38.7123 16.2304C36.854 19.2362 34.8699 22.4777 32.6915 24.6479C30.3549 26.9749 28.4127 27.5875 26.3508 27.6034" fill="white"/>
    <path d="M48.8755 3.40397C24.6516 3.40397 5.01631 9.97028 5.01631 18.0052C5.01631 26.0408 24.6516 32.6076 48.8755 32.6076C73.099 32.6076 92.733 26.0408 92.733 18.0052C92.733 9.97028 73.099 3.40397 48.8755 3.40397ZM48.8755 33.9309C23.7698 33.9309 3.41797 26.8008 3.41797 18.0052C3.41797 9.20831 23.7698 2.07947 48.8755 2.07947C73.9788 2.07947 94.3294 9.20831 94.3294 18.0052C94.3294 26.8008 73.9788 33.9309 48.8755 33.9309Z" fill="black"/>
  </g>
  <defs>
    <clipPath id="clip0_5039_4223">
      <rect width="96" height="36" fill="white" transform="translate(0.875)"/>
    </clipPath>
  </defs>
</svg>