<svg xmlns="http://www.w3.org/2000/svg" width="111" height="36" viewBox="0 0 111 36" fill="none">
  <g clip-path="url(#clip0_5039_4231)">
    <path fill-rule="evenodd" clip-rule="evenodd" d="M0.964844 15.9216C1.00318 16.1619 1.12422 16.3806 1.30634 16.5384C1.48847 16.6963 1.71981 16.7831 1.95905 16.7834C1.97392 16.7834 1.98789 16.7793 2.00254 16.7774H16.3789C16.9332 16.7774 17.3821 16.3211 17.3855 15.757H17.3868V1.07525C17.3868 1.07112 17.3879 1.06906 17.3879 1.06493C17.3879 1.06034 17.3873 1.05667 17.387 1.05255V1.03833H17.3859C17.379 0.77142 17.2698 0.517852 17.0815 0.331861C16.8933 0.14587 16.641 0.0422255 16.3786 0.0430963L16.1776 0.0614415C8.05633 0.660874 1.57101 7.24797 0.964844 15.5063V15.9214V15.9216Z" fill="black"/>
    <path fill-rule="evenodd" clip-rule="evenodd" d="M36.1699 15.7572C36.1681 16.0282 36.0612 16.2875 35.8724 16.4786C35.6836 16.6698 35.4282 16.7772 35.1619 16.7777H20.7856C20.1862 16.7834 19.7351 16.3236 19.7351 15.7572C19.7351 15.735 19.7335 15.7251 19.7351 15.7022C20.257 7.34749 26.7783 0.665913 34.96 0.0614361L35.1613 0.0430908C35.7088 0.0430908 36.155 0.484753 36.1685 1.03832C36.1701 1.05896 36.1703 5.96518 36.1697 15.7577L36.1699 15.7572Z" fill="black"/>
    <path fill-rule="evenodd" clip-rule="evenodd" d="M0.964844 20.1087C0.997649 19.8632 1.11677 19.6381 1.30014 19.4751C1.48352 19.3121 1.71872 19.2222 1.9622 19.2221H1.96491V19.2203H16.3385C16.3534 19.2203 16.3671 19.2162 16.3822 19.2162C16.5145 19.2161 16.6454 19.2425 16.7676 19.2939C16.8898 19.3454 17.0008 19.4208 17.0944 19.5159C17.1879 19.611 17.2621 19.7239 17.3128 19.8482C17.3634 19.9725 17.3895 20.1058 17.3895 20.2403C17.3895 20.2626 17.3909 20.2747 17.3895 20.2972L17.3888 20.3052C16.8672 28.6523 10.3456 35.3339 2.16388 35.9384L1.96288 35.9544C1.72021 35.9554 1.4854 35.8669 1.30194 35.7053C1.11848 35.5436 0.998801 35.3198 0.965069 35.0752V20.1087H0.964844Z" fill="black"/>
    <path fill-rule="evenodd" clip-rule="evenodd" d="M36.1698 34.947V34.9592H36.1687C36.1621 35.2262 36.0529 35.4799 35.8646 35.666C35.6763 35.852 35.4239 35.9556 35.1614 35.9544L34.9602 35.9384C26.7785 35.3339 20.2571 28.6523 19.7355 20.3052L19.7348 20.2972C19.7337 20.2747 19.7352 20.2628 19.7352 20.2403C19.7352 19.6739 20.1859 19.2162 20.7425 19.2162C20.7572 19.2162 20.7711 19.2203 20.7858 19.2203H35.1594V19.2221H35.1621C35.4279 19.2223 35.683 19.3295 35.8715 19.5202C36.0601 19.7109 36.1669 19.9698 36.1687 20.2403H36.1698V34.9225C36.1698 34.9266 36.1709 34.9308 36.1709 34.9349C36.1709 34.9388 36.17 34.9429 36.1698 34.947Z" fill="black"/>
    <path fill-rule="evenodd" clip-rule="evenodd" d="M44.1265 4.73858V8.24482H49.7808V10.8751H44.1265V16.7708H40.9079V2.09824H50.4245V4.73858H44.1265ZM60.7454 5.86681V16.7708H57.8441L57.7549 15.6219C57.4115 16.0588 56.9989 16.3929 56.5169 16.6247C56.0346 16.8563 55.4837 16.9724 54.8629 16.9724C53.7474 16.9724 52.8727 16.6428 52.239 15.9845C51.6051 15.3263 51.2881 14.305 51.2881 12.9208V5.86704H54.3779V12.9412C54.3779 13.4448 54.505 13.8195 54.7592 14.0649C55.0134 14.3098 55.3649 14.4325 55.8138 14.4325C56.6917 14.4325 57.3024 14.1233 57.6458 13.5053V5.86681H60.7454ZM71.0221 6.65337C71.6129 7.3115 71.9084 8.38975 71.9084 9.88787V16.7708H68.8088V9.86769C68.8088 9.23638 68.6781 8.80137 68.4176 8.56288C68.1569 8.32439 67.7492 8.20515 67.1947 8.20515C66.4619 8.20515 65.9138 8.50739 65.5508 9.11209V16.7708H62.4711V5.86681H65.3626L65.4715 7.12668C65.841 6.6497 66.285 6.28692 66.8032 6.03834C67.3215 5.78976 67.8977 5.66548 68.5316 5.66548C69.6009 5.66548 70.4312 5.99477 71.0221 6.65314V6.65337ZM83.0513 1.29196V16.7708H80.2683L80.12 15.5916C79.4201 16.5121 78.5255 16.9721 77.4362 16.9721C76.5648 16.9721 75.8155 16.7355 75.1882 16.2619C74.5611 15.7884 74.084 15.1351 73.7573 14.302C73.4305 13.4691 73.2672 12.5184 73.2672 11.4502V11.2385C73.2672 10.13 73.4303 9.15589 73.7571 8.31614C74.0838 7.47638 74.5608 6.82467 75.188 6.36099C75.8153 5.89777 76.5711 5.6657 77.4558 5.6657C78.4592 5.6657 79.291 6.05554 79.9512 6.83476V1.29196H83.0508H83.0513ZM79.2734 14.1658C79.5605 13.9878 79.7867 13.7307 79.9517 13.3948V9.24303C79.6281 8.55096 79.0571 8.20492 78.2384 8.20492C77.5849 8.20492 77.1076 8.47712 76.8075 9.02129C76.5069 9.56545 76.3568 10.3045 76.3568 11.2383V11.45C76.3568 12.3636 76.5019 13.0891 76.7924 13.6266C77.0831 14.1639 77.5586 14.4327 78.2188 14.4327C78.6343 14.4327 78.9859 14.3437 79.2734 14.1655V14.1658ZM87.8364 1.89162C88.1534 2.19042 88.3118 2.57842 88.3118 3.0554C88.3118 3.5255 88.1534 3.91029 87.8364 4.20932C87.5198 4.50835 87.104 4.65786 86.5889 4.65786C86.074 4.65786 85.6598 4.50835 85.3461 4.20932C85.0329 3.91029 84.8761 3.52596 84.8761 3.0554C84.8761 2.57842 85.0327 2.19042 85.3463 1.89162C85.6602 1.59259 86.0742 1.44308 86.5893 1.44308C87.1042 1.44308 87.52 1.59214 87.837 1.89139L87.8364 1.89162ZM85.0543 16.7708H88.1539V5.86681H85.0543V16.7708ZM98.6379 6.65337C99.2289 7.3115 99.5244 8.38975 99.5244 9.88787V16.7708H96.4248V9.86769C96.4248 9.23638 96.2941 8.80137 96.0336 8.56288C95.7727 8.32439 95.3648 8.20515 94.81 8.20515C94.0776 8.20515 93.5296 8.50739 93.1666 9.11209V16.7708H90.0871V5.86681H92.9787L93.0875 7.12668C93.4571 6.6497 93.901 6.28692 94.4193 6.03834C94.9375 5.78976 95.5137 5.66548 96.1476 5.66548C97.2169 5.66548 98.0473 5.99477 98.6376 6.65314L98.6379 6.65337ZM110.875 5.86681V16.358C110.875 17.3457 110.656 18.1939 110.217 18.9025C109.777 19.6111 109.16 20.1488 108.364 20.5151C107.569 20.881 106.643 21.0643 105.587 21.0643C104.854 21.0643 104.113 20.9198 103.364 20.6309C102.614 20.3419 102.025 19.936 101.596 19.4118L102.933 17.4869C103.244 17.837 103.621 18.1198 104.042 18.3184C104.471 18.5232 104.943 18.6257 105.458 18.6257C106.197 18.6257 106.77 18.4276 107.176 18.0311C107.582 17.6348 107.785 17.0737 107.785 16.3479V15.8444C107.119 16.5965 106.277 16.973 105.26 16.973C104.382 16.973 103.615 16.7359 102.958 16.2622C102.301 15.7886 101.796 15.1321 101.443 14.2923C101.089 13.4524 100.913 12.5053 100.913 11.4504V11.2388C100.913 10.1369 101.089 9.16621 101.443 8.32646C101.796 7.4867 102.303 6.83361 102.963 6.36626C103.623 5.89938 104.395 5.66593 105.28 5.66593C106.428 5.66593 107.323 6.06563 107.963 6.86526L108.082 5.86773H110.875L110.875 5.86681ZM107.786 13.5661V9.0715C107.429 8.49363 106.855 8.20469 106.063 8.20469C105.396 8.20469 104.886 8.4856 104.533 9.04628C104.179 9.60742 104.003 10.338 104.003 11.2385V11.45C104.003 12.3301 104.177 13.0472 104.523 13.6014C104.87 14.1554 105.376 14.4327 106.043 14.4327C106.835 14.4327 107.416 14.1437 107.786 13.5659V13.5661ZM51.583 31.9465C51.1013 32.7225 50.4261 33.3253 49.5581 33.7553C48.6899 34.1853 47.6749 34.4004 46.5129 34.4004C45.2719 34.4004 44.1991 34.1128 43.2945 33.5386C42.3902 32.9642 41.6969 32.1428 41.2151 31.0746C40.7329 30.0064 40.4922 28.7434 40.4922 27.2856V26.439C40.4922 24.9943 40.7396 23.7349 41.2349 22.6598C41.73 21.585 42.4315 20.7588 43.3391 20.1809C44.2468 19.6031 45.3048 19.3141 46.5129 19.3141C47.7078 19.3141 48.7311 19.5377 49.5827 19.9844C50.4345 20.4311 51.0963 21.0494 51.5684 21.8387C52.0402 22.6282 52.3226 23.537 52.415 24.5648H49.2066C49.1536 23.6915 48.9227 23.0449 48.5132 22.6248C48.104 22.2051 47.4372 21.9951 46.5129 21.9951C45.5687 21.9951 44.8724 22.3478 44.4235 23.0531C43.9746 23.7587 43.7502 24.8808 43.7502 26.419V27.2858C43.7502 28.3338 43.841 29.18 44.0224 29.8253C44.204 30.4701 44.496 30.9471 44.899 31.2562C45.3014 31.5653 45.8395 31.7194 46.5129 31.7194C47.3777 31.7194 48.0265 31.5183 48.4589 31.1152C48.8916 30.712 49.1338 30.0906 49.1868 29.2508H52.3952C52.3357 30.272 52.065 31.1702 51.583 31.9465ZM56.7449 19.3196C57.0617 19.6184 57.2204 20.0064 57.2204 20.4834C57.2204 20.9535 57.0617 21.3383 56.7449 21.6373C56.4279 21.9364 56.0121 22.0859 55.4972 22.0859C54.9821 22.0859 54.5679 21.9364 54.2542 21.6373C53.941 21.3383 53.7839 20.954 53.7839 20.4834C53.7839 20.0064 53.9408 19.6184 54.2542 19.3196C54.5679 19.0206 54.9821 18.8711 55.4972 18.8711C56.0121 18.8711 56.4279 19.0201 56.7449 19.3194V19.3196ZM53.962 34.1988H57.0618V23.2948H53.9622V34.1988H53.962ZM65.3327 23.2146L65.2932 26.2576C64.7849 26.2042 64.4284 26.1773 64.2238 26.1773C63.6825 26.1773 63.2417 26.2645 62.9017 26.4392C62.5614 26.6139 62.3124 26.8758 62.154 27.2253V34.1988H59.0646V23.2948H61.9658L62.065 24.6354C62.3354 24.1382 62.6705 23.7571 63.07 23.4916C63.4693 23.2263 63.9232 23.0935 64.4315 23.0935C64.8011 23.0935 65.1015 23.1338 65.3324 23.2146H65.3327ZM75.3766 30.3493C75.3766 31.1354 75.1783 31.8357 74.7824 32.4503C74.3862 33.0648 73.8481 33.5441 73.168 33.8865C72.4879 34.2291 71.7288 34.4001 70.8903 34.4001C69.8143 34.4001 68.9014 34.1616 68.1524 33.6847C67.4029 33.2077 66.8418 32.5546 66.4686 31.7247C66.0957 30.8953 65.9093 29.9464 65.9093 28.8782V28.626C65.9093 27.558 66.0957 26.6075 66.4686 25.7744C66.8418 24.9413 67.4015 24.2862 68.1474 23.8092C68.8933 23.3322 69.8043 23.0937 70.8803 23.0937C71.765 23.0937 72.5456 23.2668 73.2223 23.6127C73.8992 23.9589 74.4274 24.4593 74.8069 25.1142C75.1866 25.7694 75.3764 26.5435 75.3764 27.4372H72.4746C72.4679 26.9063 72.3214 26.4731 72.0341 26.137C71.7468 25.8012 71.3391 25.6332 70.8112 25.6332C70.1115 25.6332 69.6344 25.9003 69.3803 26.4344C69.1261 26.9687 68.9994 27.6991 68.9994 28.6262V28.8784C68.9994 29.8255 69.1261 30.5593 69.3803 31.0799C69.6344 31.6004 70.118 31.8612 70.831 31.8612C71.3263 31.8612 71.7222 31.7249 72.0194 31.453C72.3164 31.1808 72.4683 30.8132 72.4746 30.3495H75.3764L75.3766 30.3493ZM76.8445 34.1988H79.944V18.72H76.8442V34.1988H76.8445ZM91.4434 29.7748H84.7192C84.8387 30.4199 85.1122 30.9288 85.5417 31.3016C85.9705 31.6745 86.5186 31.8612 87.1854 31.8612C87.7003 31.8612 88.1755 31.7671 88.6113 31.5786C89.0469 31.3906 89.4203 31.0984 89.7304 30.702L91.1861 32.4654C90.8097 33.0098 90.2583 33.4684 89.5321 33.8413C88.806 34.2142 87.9576 34.4008 86.9873 34.4008C85.8847 34.4008 84.9241 34.1637 84.1056 33.6899C83.287 33.2164 82.6598 32.5766 82.224 31.7706C81.7882 30.9643 81.5705 30.0773 81.5705 29.11V28.7271C81.5705 27.6454 81.7718 26.6793 82.1744 25.8297C82.5771 24.9798 83.1599 24.3116 83.9224 23.8243C84.6847 23.3372 85.5944 23.0937 86.6506 23.0937C87.6608 23.0937 88.5255 23.3104 89.2452 23.7438C89.9649 24.1772 90.5112 24.7952 90.8841 25.5981C91.257 26.4007 91.4436 27.3464 91.4436 28.4347V29.7751L91.4434 29.7748ZM88.4132 27.437C88.4132 26.8728 88.2629 26.4307 87.9626 26.1115C87.6622 25.7928 87.2183 25.6329 86.6308 25.6329C85.5807 25.6329 84.9475 26.3186 84.7294 27.6887H88.4132V27.4372V27.437Z" fill="#2A2A2A"/>
  </g>
  <defs>
    <clipPath id="clip0_5039_4231">
      <rect width="110" height="36" fill="white" transform="translate(0.875)"/>
    </clipPath>
  </defs>
</svg>