<svg xmlns="http://www.w3.org/2000/svg" width="239" height="110" viewBox="0 0 239 110" fill="none">
  <rect opacity="0.7" x="1.375" y="0.5" width="237" height="109" rx="54.5" fill="white" stroke="#00218C"/>
  <path d="M113.898 62.0245C117.023 62.0245 119.584 59.5811 119.584 56.1328C119.584 53.0392 117.044 50.5762 113.959 50.5762C110.713 50.5762 108.152 53.0392 108.152 56.1328C108.152 59.4629 110.894 62.0245 113.898 62.0245ZM105.975 48.4284C108.132 46.3791 110.814 45.3348 113.919 45.3348C116.842 45.3348 119.604 46.4383 121.721 48.4481C123.939 50.5565 125.088 53.2757 125.088 56.1526C125.088 59.187 123.979 61.8865 121.923 63.9358C119.806 66.0836 116.923 67.2462 113.878 67.2462C110.652 67.2462 107.89 66.123 105.753 63.9161C103.697 61.8077 102.648 59.187 102.648 56.0737C102.669 53.1575 103.838 50.4777 105.975 48.4284ZM127.769 66.7338H132.568V45.3348H127.769V66.7338ZM144.362 62.5171C146.459 62.5171 148.193 60.8619 148.193 58.6747C148.193 56.4087 146.439 54.6944 144.18 54.6944C141.882 54.6944 140.088 56.4875 140.088 58.6156C140.088 60.8225 141.862 62.5171 144.362 62.5171ZM148.172 64.8816C146.721 66.2412 145.249 66.7338 143.293 66.7338C141.297 66.7338 139.584 66.123 138.132 64.8816C136.237 63.2659 135.249 61.1378 135.249 58.655C135.249 56.389 136.176 54.3397 137.89 52.7437C139.422 51.3053 141.297 50.5565 143.394 50.5565C145.39 50.5565 146.922 51.2067 148.031 52.5663V50.7929H152.89V66.655H148.193V64.8816H148.172ZM155.652 66.6944V50.5959H160.007V52.7634C161.015 51.1082 162.487 50.3003 164.463 50.3003C166.438 50.3003 167.93 51.1476 168.999 52.8816C170.713 51.1082 172.023 50.3003 174.059 50.3003C177.749 50.3003 179.825 52.3299 179.825 56.0737V66.6747H175.128V57.9654C175.128 55.7191 174.644 54.6944 172.85 54.6944C171.015 54.6944 170.047 55.7979 170.047 57.9654V66.6747H165.33V57.9654C165.33 55.7191 164.846 54.6944 163.051 54.6944C161.217 54.6944 160.249 55.7979 160.249 57.9654V66.6747H155.652" fill="black"/>
  <path d="M95.788 54.872C85.5864 54.872 77.3203 62.9902 77.3203 73C87.5219 73 95.788 64.8818 95.788 54.872Z" fill="black"/>
  <path d="M58.875 54.872C58.875 64.8818 67.1411 73 77.3427 73C77.3427 62.9902 69.0766 54.872 58.875 54.872Z" fill="black"/>
  <path d="M77.0428 69.8673C77.0428 60.0939 84.8653 50.6358 94.6636 50.2023C93.9781 47.8575 92.829 45.6703 91.2765 43.7787C83.1314 46.6358 77.0428 57.5126 77.0428 66.1235C77.0428 57.5126 70.9541 46.6358 62.809 43.7787C61.2565 45.6703 60.0872 47.8575 59.4219 50.2023C69.2 50.6358 77.0428 60.0939 77.0428 69.8673Z" fill="black"/>
  <path d="M77.0388 62.0443C77.0388 55.2069 80.9299 45.1576 86.6556 39.6798C83.7726 37.9261 80.446 37 77.0388 37C73.6315 37 70.3049 37.9261 67.4219 39.6798C73.1477 45.1576 77.0388 55.1872 77.0388 62.0443Z" fill="black"/>
</svg>