<svg xmlns="http://www.w3.org/2000/svg" width="151" height="110" viewBox="0 0 151 110" fill="none">
  <rect opacity="0.7" x="1.25" y="0.5" width="237" height="109" rx="54.5" fill="white" stroke="#00218C"/>
  <path fill-rule="evenodd" clip-rule="evenodd" d="M118.807 40.9377H123.322C125.747 40.9377 126.659 42.2202 126.518 44.1044C126.285 47.215 124.486 48.936 122.099 48.936H120.893C120.566 48.936 120.346 49.1626 120.257 49.7764L119.745 53.345C119.711 53.5764 119.595 53.7104 119.42 53.7287H116.583C116.316 53.7287 116.222 53.5155 116.292 53.0539L118.021 41.6137C118.089 41.1557 118.329 40.9377 118.807 40.9377Z" fill="black"/>
  <path fill-rule="evenodd" clip-rule="evenodd" d="M115.985 37H120.505C121.777 37 123.288 37.0426 124.297 37.9743C124.972 38.5967 125.326 39.5869 125.245 40.6538C124.967 44.2602 122.903 46.2808 120.134 46.2808H117.905C117.525 46.2808 117.275 46.5439 117.168 47.2552L116.545 51.3962C116.504 51.6642 116.394 51.8225 116.196 51.842H113.406C113.098 51.842 112.988 51.5984 113.068 51.0601L115.073 37.7868C115.154 37.2533 115.434 37 115.985 37Z" fill="black"/>
  <path fill-rule="evenodd" clip-rule="evenodd" d="M117.23 46.8351L118.02 41.6137C118.088 41.1558 118.328 40.9365 118.806 40.9365H123.322C124.069 40.9365 124.674 41.0583 125.147 41.2836C124.693 44.4942 122.706 46.2773 120.105 46.2773H117.88C117.581 46.2785 117.362 46.4344 117.23 46.8351Z" fill="black"/>
  <path fill-rule="evenodd" clip-rule="evenodd" d="M101.773 58.9029C103.311 58.9029 104.729 59.8374 104.535 62.1664C104.3 64.9344 102.976 66.466 100.888 66.4726H99.0637C98.8013 66.4726 98.6743 66.7125 98.606 67.2041L98.2531 69.7177C98.2002 70.0973 98.0261 70.2844 97.7696 70.2844H96.072C95.8015 70.2844 95.7074 70.0907 95.7674 69.657L97.1685 59.583C97.2379 59.0874 97.4037 58.9029 97.7061 58.9029H101.769H101.773ZM99.0084 64.2964H100.391C101.255 64.2595 101.829 63.5886 101.887 62.3786C101.922 61.6313 101.472 61.0962 100.755 61.1001L99.4542 61.1067L99.0084 64.2964ZM109.15 69.5134C109.306 69.3552 109.463 69.2735 109.441 69.4686L109.385 69.9352C109.357 70.179 109.443 70.3082 109.645 70.3082H111.154C111.408 70.3082 111.531 70.1935 111.594 69.7533L112.523 63.2183C112.57 62.8901 112.498 62.7293 112.276 62.7293H110.617C110.468 62.7293 110.395 62.8228 110.356 63.0785L110.295 63.4806C110.263 63.6901 110.177 63.727 110.097 63.5161C109.816 62.7701 109.098 62.4353 108.097 62.4617C105.772 62.5157 104.203 64.4942 104.035 67.0301C103.906 68.9914 105.16 70.5322 106.814 70.5322C108.014 70.5322 108.55 70.1368 109.155 69.5173L109.15 69.5134ZM107.887 68.5077C106.886 68.5077 106.188 67.6127 106.333 66.5161C106.477 65.4194 107.414 64.5245 108.415 64.5245C109.416 64.5245 110.114 65.4194 109.969 66.5161C109.824 67.6127 108.889 68.5077 107.887 68.5077ZM115.475 62.7082H113.945C113.63 62.7082 113.502 62.9718 113.602 63.296L115.5 69.5252L113.638 72.4896C113.482 72.7374 113.603 72.9628 113.823 72.9628H115.542C115.642 72.9757 115.743 72.9562 115.834 72.9064C115.924 72.8566 116 72.7787 116.052 72.682L121.892 63.2973C122.072 63.0087 121.987 62.7055 121.692 62.7055H120.065C119.786 62.7055 119.674 62.8294 119.514 63.0891L117.079 67.0433L115.991 63.0799C115.928 62.84 115.769 62.7082 115.476 62.7082H115.475Z" fill="black"/>
  <path fill-rule="evenodd" clip-rule="evenodd" d="M127.967 58.9026C129.505 58.9026 130.923 59.8372 130.729 62.1662C130.494 64.9343 129.171 66.4659 127.082 66.4725H125.259C124.997 66.4725 124.87 66.7124 124.801 67.204L124.448 69.7176C124.395 70.0972 124.221 70.2844 123.965 70.2844H122.267C121.997 70.2844 121.903 70.0906 121.963 69.657L123.366 59.5801C123.436 59.0845 123.601 58.9 123.904 58.9H127.967V58.9026ZM125.203 64.2963H126.585C127.449 64.2594 128.024 63.5885 128.081 62.3785C128.116 61.6311 127.666 61.0959 126.949 61.0999L125.648 61.1065L125.203 64.2963ZM135.344 69.5133C135.5 69.3552 135.657 69.2734 135.635 69.4685L135.58 69.9351C135.551 70.179 135.637 70.3081 135.84 70.3081H137.348C137.602 70.3081 137.725 70.1935 137.788 69.7532L138.717 63.2181C138.764 62.8899 138.692 62.7291 138.47 62.7291H136.814C136.664 62.7291 136.591 62.8227 136.553 63.0784L136.491 63.4804C136.46 63.69 136.374 63.7269 136.294 63.516C136.013 62.7699 135.295 62.4351 134.294 62.4615C131.968 62.5155 130.4 64.494 130.232 67.03C130.102 68.9914 131.356 70.5322 133.01 70.5322C134.21 70.5322 134.747 70.1368 135.351 69.5173L135.344 69.5133ZM134.082 68.5076C133.081 68.5076 132.383 67.6126 132.528 66.516C132.673 65.4193 133.609 64.5243 134.61 64.5243C135.611 64.5243 136.309 65.4193 136.164 66.516C136.02 67.6126 135.083 68.5076 134.082 68.5076ZM141.038 70.3187H139.297C139.267 70.3202 139.237 70.3142 139.209 70.3011C139.181 70.288 139.156 70.2682 139.135 70.243C139.115 70.2178 139.1 70.1879 139.091 70.1554C139.082 70.1229 139.08 70.0887 139.084 70.0551L140.614 59.1992C140.628 59.1251 140.665 59.0587 140.717 59.0109C140.77 58.963 140.835 58.9365 140.903 58.9356H142.644C142.674 58.9341 142.705 58.9401 142.733 58.9531C142.76 58.9662 142.786 58.9861 142.806 59.0112C142.826 59.0364 142.841 59.0663 142.85 59.0988C142.859 59.1313 142.861 59.1656 142.857 59.1992L141.328 70.0551C141.313 70.1296 141.277 70.1966 141.225 70.245C141.172 70.2934 141.106 70.3203 141.038 70.3213V70.3187Z" fill="black"/>
</svg>