<svg xmlns="http://www.w3.org/2000/svg" width="146" height="24" viewBox="0 0 146 24" fill="none">
  <path d="M22.4466 10.9038L22.3949 11.0389C23.2569 11.4223 25.1921 12.9428 25.1921 16.0055C25.1921 18.8896 22.7871 21.7956 19.0072 21.7956C14.305 21.7956 12.6844 19.016 12.6844 16.463C12.6844 13.1911 14.9472 11.0127 14.9472 8.03276C14.9349 6.97882 14.5692 5.96027 13.9101 5.14359C13.2509 4.32691 12.3371 3.7604 11.3182 3.53665L11.2406 3.67171C11.6101 4.03415 11.9033 4.46838 12.1026 4.94829C12.3018 5.42821 12.403 5.9439 12.4 6.46435C12.4 9.68395 9.71484 11.9712 9.71484 15.6657C9.71484 19.0683 12.0681 22.5362 18.8823 22.5362C24.9551 22.5362 28.1574 19.5301 28.1574 16.3323C28.1531 13.5875 26.2093 11.2654 22.4466 10.9038Z" fill="black"/>
  <path d="M49.1242 21.9873L41.0515 11.4659V20.9504L42.698 21.3468V21.7825H38.9439V21.3468L40.2887 20.9504V10.6163C39.9614 10.3079 39.5673 10.0812 39.1379 9.95409C38.9741 9.91924 38.7543 9.88003 38.7543 9.88003V9.44436H41.9394L48.8354 18.5063V10.2852L47.189 9.88438V9.44871H50.943V9.88438L49.5983 10.2852V19.6913C49.5983 20.5626 49.6586 21.8304 49.6716 21.9916L49.1242 21.9873ZM66.0022 15.2867C66.0022 19.6434 62.9852 22.1703 59.6881 22.1703C56.3909 22.1703 53.361 19.6085 53.361 15.6265C53.361 11.6445 56.378 9.05661 59.6579 9.05661C60.4835 9.02906 61.3061 9.17015 62.0766 9.47143C62.847 9.77271 63.5494 10.228 64.1417 10.81C64.734 11.3921 65.204 12.0889 65.5237 12.8589C65.8434 13.6288 66.0062 14.456 66.0022 15.291V15.2867ZM63.9033 15.9402C63.9033 12.738 62.0069 9.63169 59.4295 9.63169C56.6883 9.63169 55.4513 12.3111 55.4513 15.1778C55.4513 18.0445 57.0159 21.5995 59.9596 21.5995C62.7266 21.5995 63.9033 18.7677 63.9033 15.9402ZM68.6098 10.2765L67.3168 9.87567V9.44H72.269V9.87567L70.7174 10.2765L74.1353 19.6957L77.5531 10.2765L76.0015 9.87567V9.44H79.665V9.87567L78.372 10.2765L74.0922 22.0178H72.9974L68.6098 10.2765ZM97.8748 15.4827H97.0904V10.0891C99.6764 10.0891 101.215 10.6904 101.215 12.8252C101.202 14.411 99.8575 15.4827 97.8748 15.4827ZM120.033 21.3468L121.757 20.9504V10.2808L120.033 9.88003V9.44436H125.407V9.88003L123.683 10.2808V20.9504L125.407 21.3468V21.7825H120.033V21.3468ZM128.7 18.393H129.041L130.183 21.0506C130.862 21.3953 131.608 21.5829 132.368 21.5995C133.851 21.5995 135.204 20.7282 135.204 19.1685C135.204 17.9835 134.445 17.2777 133.217 16.6285L132.002 15.9925C130.549 15.23 129.097 14.1496 129.097 12.4113C129.097 10.5205 130.39 9.06097 133.157 9.06097C134.129 9.07095 135.094 9.23109 136.019 9.53585L136.307 12.3938H135.941L134.885 10.1022C134.338 9.79361 133.722 9.63163 133.096 9.63169C131.696 9.63169 130.743 10.503 130.743 11.7098C130.743 12.8034 131.463 13.4917 132.695 14.1365L134.135 14.8946C136.1 15.9228 137.031 16.8769 137.031 18.6413C137.031 20.8197 135.01 22.1746 132.497 22.1746C131.314 22.1928 130.136 22.0147 129.01 21.6475L128.7 18.393ZM78.8763 21.3468L80.2598 20.9504L84.531 9.43564L85.9576 9.06532L90.3668 20.946L91.7503 21.3468V21.7825H86.5179V21.3468L88.2894 20.946L87.0395 17.5304H82.3415L81.1002 20.946L82.8717 21.3425V21.7782H78.8763V21.3468ZM82.6691 16.6198H86.7334L84.7164 11.113L82.6691 16.6198ZM100.34 15.7485C100.771 15.6396 103.189 15.0166 103.189 12.6988C103.189 10.8385 101.78 9.39643 98.3058 9.39643C96.1508 9.39643 93.9958 9.44436 93.7243 9.45307V9.88874L95.1423 10.2896V20.946L93.7243 21.3468V21.7825H98.7412V21.3468L97.0947 20.946V16.1275H98.5127L102.137 21.7912H105.348V21.3556L103.724 20.9199L100.34 15.7485ZM110.934 10.0848V20.9504L109.21 21.3468V21.7825H114.585V21.3468L112.861 20.9504V10.0891H115.761L116.718 12.1716H117.089L116.813 9.45743H106.982L106.706 12.1716H107.077L108.025 10.1109L110.934 10.0848ZM18.9627 17.9268L20.6867 1.46289H17.1094L18.8334 17.9268H18.9627Z" fill="black"/>
</svg>