<svg xmlns="http://www.w3.org/2000/svg" width="32" height="32" viewBox="0 0 32 32" fill="none">
  <path d="M3.49882 16C3.49882 15.6022 3.65685 15.2206 3.93816 14.9393C4.21946 14.658 4.60099 14.5 4.99882 14.5L23.3738 14.5L16.9338 8.06124C16.652 7.77944 16.4937 7.39725 16.4937 6.99874C16.4937 6.60022 16.652 6.21803 16.9338 5.93624C17.2156 5.65444 17.5978 5.49613 17.9963 5.49613C18.3948 5.49613 18.777 5.65444 19.0588 5.93624L28.0588 14.9362C28.1987 15.0756 28.3096 15.2412 28.3853 15.4235C28.461 15.6058 28.5 15.8013 28.5 15.9987C28.5 16.1962 28.461 16.3916 28.3853 16.574C28.3096 16.7563 28.1987 16.9219 28.0588 17.0612L19.0588 26.0612C18.9193 26.2008 18.7536 26.3115 18.5713 26.387C18.389 26.4625 18.1936 26.5013 17.9963 26.5013C17.799 26.5013 17.6036 26.4625 17.4213 26.387C17.239 26.3115 17.0733 26.2008 16.9338 26.0612C16.7943 25.9217 16.6836 25.7561 16.6081 25.5738C16.5326 25.3915 16.4937 25.1961 16.4937 24.9987C16.4937 24.8014 16.5326 24.606 16.6081 24.4237C16.6836 24.2414 16.7943 24.0758 16.9338 23.9362L23.3738 17.5L4.99882 17.5C4.60099 17.5 4.21946 17.342 3.93816 17.0606C3.65685 16.7793 3.49882 16.3978 3.49882 16Z" fill="#333333"/>
</svg>