<svg xmlns="http://www.w3.org/2000/svg" width="32" height="32" viewBox="0 0 32 32" fill="none">
<path d="M28.5012 16C28.5012 16.3978 28.3431 16.7794 28.0618 17.0607C27.7805 17.342 27.399 17.5 27.0012 17.5H8.62618L15.0662 23.9388C15.348 24.2206 15.5063 24.6027 15.5063 25.0013C15.5063 25.3998 15.348 25.782 15.0662 26.0638C14.7844 26.3456 14.4022 26.5039 14.0037 26.5039C13.6052 26.5039 13.223 26.3456 12.9412 26.0638L3.94118 17.0638C3.80134 16.9244 3.69039 16.7588 3.61468 16.5765C3.53897 16.3942 3.5 16.1987 3.5 16.0013C3.5 15.8038 3.53897 15.6084 3.61468 15.426C3.69039 15.2437 3.80134 15.0781 3.94118 14.9388L12.9412 5.93876C13.0807 5.79923 13.2464 5.68855 13.4287 5.61304C13.611 5.53752 13.8064 5.49866 14.0037 5.49866C14.201 5.49866 14.3964 5.53752 14.5787 5.61304C14.761 5.68855 14.9267 5.79923 15.0662 5.93876C15.2057 6.07829 15.3164 6.24393 15.3919 6.42624C15.4674 6.60854 15.5063 6.80393 15.5063 7.00126C15.5063 7.19858 15.4674 7.39398 15.3919 7.57628C15.3164 7.75858 15.2057 7.92423 15.0662 8.06376L8.62618 14.5H27.0012C27.399 14.5 27.7805 14.658 28.0618 14.9393C28.3431 15.2207 28.5012 15.6022 28.5012 16Z" fill="#333333"/>
</svg>